<svg xmlns="http://www.w3.org/2000/svg" xmlns:xlink="http://www.w3.org/1999/xlink" preserveAspectRatio="xMidYMid" width="344" height="344" viewBox="0 0 344 344">
  <defs>
    <style>
      .cls-1 {
        fill: #f1a200;
      }

      .cls-1, .cls-2, .cls-3 {
        fill-rule: evenodd;
      }

      .cls-2 {
        fill: #ffd817;
      }

      .cls-3 {
        fill: #21a366;
      }
    </style>
  </defs>
  <path d="M57.000,89.000 C56.729,64.859 78.202,43.523 104.000,49.000 C103.620,58.126 103.490,64.865 110.000,67.000 C112.376,68.909 114.487,66.056 119.000,66.000 C121.448,63.843 126.872,58.470 130.000,58.000 C132.003,60.621 136.105,61.815 137.000,66.000 C132.026,69.183 132.780,73.464 133.000,82.000 C135.765,84.850 139.315,86.131 142.000,89.000 C159.867,89.793 153.296,82.621 162.890,79.134 C162.265,79.821 169.606,83.495 171.000,86.000 C170.667,86.000 167.333,88.000 167.000,88.000 C165.177,92.999 160.845,97.430 157.000,101.000 C156.714,113.916 159.814,111.234 166.000,117.000 C180.098,116.872 185.427,100.889 190.000,102.000 C193.200,103.277 198.577,107.793 199.000,112.000 C190.270,114.741 184.664,122.046 179.000,128.000 C178.883,131.280 176.764,135.184 180.054,136.187 C182.493,143.658 184.145,143.728 194.466,143.486 C199.318,142.724 210.868,127.948 215.000,127.000 C215.947,129.927 218.764,133.511 221.000,135.000 C220.667,136.000 224.333,139.000 224.000,140.000 C214.608,142.426 199.769,151.076 200.000,164.000 C203.372,167.467 207.534,168.627 211.000,172.000 C223.230,172.153 231.278,163.370 236.000,156.000 C236.333,156.000 238.667,156.000 239.000,156.000 C239.000,156.667 242.000,158.333 242.000,159.000 C243.284,160.748 240.683,165.222 241.000,168.000 C235.783,169.610 224.728,177.941 226.000,190.000 C227.202,193.105 227.837,196.603 231.000,198.000 C238.148,199.935 243.551,198.267 248.000,197.000 C253.199,226.235 262.491,255.309 263.000,285.000 C262.333,285.000 261.667,285.000 261.000,285.000 C253.707,284.123 245.000,279.000 245.000,279.000 C245.000,279.000 212.534,267.304 198.000,261.000 C191.755,259.124 181.498,258.822 179.000,253.000 C186.763,239.960 178.762,231.401 173.000,230.000 C160.652,230.202 160.110,239.348 150.000,243.000 C148.616,241.895 140.127,239.506 138.000,239.000 C138.000,238.000 144.000,235.000 144.000,234.000 C150.947,229.617 151.466,225.511 157.465,219.925 C160.388,210.674 158.662,206.175 152.000,204.000 C134.048,198.150 131.915,216.509 125.000,220.000 C125.000,219.667 123.000,217.333 123.000,217.000 C121.006,215.500 118.332,211.121 117.000,209.000 C126.513,200.616 134.216,199.220 138.000,188.000 C137.716,180.326 134.001,175.807 128.927,175.458 C126.069,174.324 122.096,174.378 115.678,179.311 C109.363,183.480 108.450,186.651 105.000,192.000 C104.667,192.000 104.859,195.288 103.000,193.000 C103.000,192.667 102.000,191.333 102.000,191.000 C99.596,189.218 96.617,184.707 96.000,181.000 C103.988,178.264 110.606,170.651 116.000,165.000 C116.000,162.000 116.000,159.000 116.000,156.000 C113.069,152.848 112.676,149.630 108.000,148.000 C105.774,146.209 103.203,146.003 99.000,146.000 C94.595,149.760 87.980,158.774 82.000,160.000 C81.667,159.000 80.333,156.000 80.000,155.000 C79.123,153.705 79.106,152.533 79.000,150.000 C88.593,147.168 91.492,132.911 86.000,121.000 C72.138,117.393 71.448,127.268 66.000,129.000 C66.000,128.333 65.000,124.667 65.000,124.000 C63.228,122.081 64.104,118.864 64.000,115.000 C71.076,112.244 73.768,108.603 74.000,99.000 C73.351,98.140 74.662,95.856 74.000,95.000 C72.586,90.815 68.672,92.771 66.000,90.000 C63.334,89.667 59.666,89.333 57.000,89.000 ZM92.000,66.000 C90.451,67.049 86.915,66.031 84.000,66.000 C81.869,68.829 79.560,71.407 77.000,74.000 C76.634,82.094 76.683,84.628 82.000,87.000 C86.380,91.249 90.394,90.446 96.000,89.000 C100.440,79.101 107.448,71.984 92.000,66.000 ZM117.000,88.000 C115.992,88.693 112.001,89.287 111.000,90.000 C103.208,92.577 101.468,100.763 96.000,106.000 C95.748,112.082 95.645,112.144 97.000,118.000 C103.357,121.732 102.816,121.301 112.000,121.000 C118.166,109.297 123.855,116.252 129.000,97.000 C124.151,93.224 124.519,89.738 117.000,88.000 ZM139.000,116.000 C137.556,117.127 132.778,119.398 132.685,117.812 C129.754,121.035 123.437,127.922 118.000,133.000 C117.833,138.506 117.729,136.847 118.000,142.000 C120.829,144.131 122.407,146.440 125.000,149.000 C128.000,149.000 130.000,149.000 133.000,149.000 C137.457,144.710 142.066,141.818 147.000,138.000 C148.667,135.667 152.334,135.333 152.483,131.809 C152.133,126.481 153.189,126.128 151.000,123.000 C150.176,120.151 149.064,119.560 147.000,118.000 C144.137,115.677 144.185,116.037 139.000,116.000 ZM164.000,143.000 C162.820,143.803 161.319,144.773 159.000,145.000 C153.254,152.004 142.181,151.652 141.000,163.000 C139.352,166.019 143.445,168.268 144.000,172.000 C145.183,173.607 147.319,174.183 149.000,176.000 C163.654,176.942 167.497,170.236 174.951,160.835 C174.975,155.544 177.291,154.251 175.000,151.000 C173.190,145.476 170.538,143.726 164.000,143.000 ZM181.000,171.000 C175.304,174.814 174.934,176.182 170.000,180.000 C168.334,182.333 164.667,184.667 163.000,187.000 C162.879,193.266 162.891,194.816 164.000,199.000 C168.714,201.795 170.064,204.923 178.000,205.000 C181.652,203.963 184.220,201.044 187.000,199.000 C191.645,195.585 191.898,192.020 196.000,188.000 C196.884,181.679 198.742,181.935 196.000,176.000 C194.334,172.713 192.333,171.666 190.000,170.000 C187.000,170.000 186.097,169.951 181.000,171.000 ZM205.000,198.000 C195.829,203.254 184.531,209.088 186.000,222.000 C187.414,226.185 191.328,228.229 194.000,231.000 C199.840,229.728 197.517,230.185 203.000,228.000 C212.161,221.965 216.350,220.288 222.494,209.897 C221.816,204.698 220.658,201.569 214.000,200.000 C210.658,199.677 212.166,197.109 205.000,198.000 ZM228.000,225.000 C219.498,230.403 216.498,236.328 210.000,243.000 C208.268,248.790 208.431,252.484 213.000,256.000 C216.018,258.604 217.493,259.824 223.000,260.000 C224.958,258.451 228.785,258.485 231.000,257.000 C236.999,252.976 240.035,247.152 245.000,242.000 C245.523,228.241 241.680,224.494 228.000,225.000 Z" class="cls-1"/>
  <path d="M79.000,40.000 C84.667,39.635 86.814,39.779 88.000,43.000 C88.961,44.418 88.930,46.701 88.000,50.000 C85.719,51.225 86.226,52.161 82.000,53.000 C79.596,53.204 79.628,52.853 77.000,52.000 C77.000,51.667 76.049,51.240 75.000,49.000 C74.285,46.807 74.402,46.162 75.000,44.000 C76.598,40.904 76.309,41.311 79.000,40.000 ZM112.000,41.000 C116.308,40.977 118.868,40.655 121.000,42.000 C125.753,43.569 128.049,45.605 130.000,50.000 C131.274,53.816 131.167,57.699 130.000,61.000 C127.771,68.211 121.943,70.336 112.000,70.000 C106.993,68.593 104.185,67.270 102.000,62.000 C100.004,59.357 99.345,53.887 100.000,50.000 C102.823,45.235 106.785,41.109 112.000,41.000 ZM59.000,58.000 C59.667,58.000 61.236,57.475 64.000,59.000 C66.147,60.932 65.664,60.699 66.000,63.000 C66.003,66.246 64.172,69.184 62.000,71.000 C60.847,71.822 60.760,71.470 58.000,72.000 C55.722,70.533 53.862,70.483 53.000,67.000 C52.504,64.275 52.057,64.533 53.000,62.000 C54.807,58.632 55.937,58.383 59.000,58.000 ZM148.000,59.000 C152.591,58.300 152.944,58.403 157.000,60.000 C163.234,68.942 164.646,70.683 163.000,83.000 C157.712,88.144 153.766,92.471 143.000,93.000 C140.013,93.146 138.683,92.747 136.000,91.000 C132.733,89.376 130.948,86.247 130.000,83.000 C129.612,72.771 131.114,67.773 137.000,64.000 C138.763,62.906 143.017,60.060 148.000,59.000 ZM89.000,62.000 C94.602,62.705 100.723,65.576 104.000,73.000 C106.705,83.952 102.138,90.385 92.000,92.000 C86.283,92.776 81.467,93.919 77.000,88.000 C72.397,81.380 73.189,76.844 76.000,70.000 C78.136,64.798 84.518,61.965 89.000,62.000 ZM177.000,82.000 C181.692,82.117 183.563,82.259 187.000,84.000 C190.280,86.060 192.529,89.561 193.000,93.000 C193.743,98.431 193.765,99.294 192.000,105.000 C187.971,109.542 176.873,117.733 172.000,120.000 C165.435,121.317 163.127,120.221 159.000,118.000 C155.069,114.491 151.882,111.983 152.000,107.000 C152.717,102.661 153.137,101.506 154.000,99.000 C158.001,91.222 161.678,88.929 168.000,84.000 C171.768,81.712 172.264,82.638 177.000,82.000 ZM59.997,84.994 C63.620,84.285 65.048,84.427 68.000,86.000 C72.242,88.037 73.968,90.630 76.000,94.000 C77.668,97.476 78.002,100.952 77.000,105.000 C73.545,110.840 72.120,114.837 63.000,116.000 C58.034,114.506 53.147,112.586 50.000,108.000 C47.867,105.333 47.880,101.046 48.000,96.000 C49.380,92.713 51.047,90.475 53.000,89.000 C56.012,86.666 56.903,86.104 59.997,84.994 ZM116.000,85.000 C123.086,84.177 129.210,87.025 131.186,93.604 C132.347,99.010 133.134,102.559 132.000,109.000 C125.975,114.791 118.333,120.725 108.000,125.000 C100.265,125.804 95.311,120.472 92.000,115.000 C93.853,94.967 104.890,88.058 116.000,85.000 ZM196.000,109.000 C206.273,109.156 211.060,112.200 215.000,121.000 C217.144,125.801 217.109,127.125 216.000,131.000 C208.124,140.061 204.245,146.796 187.000,147.000 C184.281,146.848 184.508,146.174 182.000,145.000 C177.317,141.032 175.975,137.654 176.000,128.000 C176.549,125.275 178.176,122.609 180.000,121.000 C185.027,116.564 189.312,111.749 196.000,109.000 ZM137.000,113.000 C141.981,113.855 146.150,114.929 152.000,120.000 C154.514,124.078 155.153,126.337 155.000,132.000 C149.991,139.271 143.287,147.114 131.620,151.538 C123.314,152.551 117.316,149.228 116.000,145.000 C113.977,142.478 114.905,137.790 115.000,133.000 C115.892,128.801 117.805,126.895 120.000,125.000 C125.216,120.496 129.531,115.844 137.000,113.000 ZM74.000,118.000 C81.457,116.684 83.382,117.520 89.000,120.000 C91.699,122.270 90.966,122.988 92.000,126.000 C92.929,131.426 93.249,137.183 92.000,142.000 C87.381,147.240 84.858,150.002 79.000,152.000 C72.928,152.347 68.269,151.619 64.807,149.061 C61.339,147.298 60.086,145.108 60.000,142.000 C59.714,127.658 65.487,122.506 74.000,118.000 ZM221.000,137.000 C226.125,135.706 229.422,138.091 233.000,141.000 C235.725,145.042 238.627,152.373 239.000,158.000 C228.952,164.500 221.826,175.125 209.000,174.000 C206.564,172.001 202.686,170.649 201.000,168.000 C190.858,152.065 213.597,142.011 221.000,137.000 ZM159.000,141.000 C164.988,140.897 168.167,140.977 172.000,143.000 C175.305,148.086 177.943,150.028 178.000,159.000 C176.488,163.413 174.494,165.522 172.008,168.013 C167.488,172.542 164.368,175.692 157.000,179.000 C146.053,181.581 145.607,177.090 140.000,171.000 C137.995,167.575 137.944,165.513 138.000,161.000 C139.374,156.946 141.778,153.454 145.000,151.000 C149.563,147.525 153.293,143.813 159.000,141.000 ZM99.000,145.000 C103.000,144.380 105.476,144.618 109.000,146.000 C112.561,148.067 115.680,151.740 117.000,155.000 C118.144,158.428 117.000,161.667 117.000,165.000 C111.834,173.112 103.390,185.025 84.000,181.000 C79.199,177.981 77.006,173.935 77.000,166.000 C77.701,162.322 79.075,161.126 81.000,158.000 C84.603,152.147 93.454,149.157 99.000,145.000 ZM187.000,168.000 C194.091,167.960 199.471,175.954 200.000,183.000 C196.530,193.471 195.649,195.536 181.000,206.000 C174.488,207.402 175.257,206.954 170.000,205.000 C166.375,203.864 164.515,202.586 162.000,199.000 C160.209,196.774 160.145,192.821 161.000,189.000 C164.510,181.116 169.649,176.544 176.000,172.000 C178.471,170.233 181.455,167.098 187.000,168.000 ZM236.000,170.000 C239.040,168.339 239.681,167.571 241.000,170.000 C244.194,174.810 248.806,189.551 249.000,197.000 C248.333,197.000 246.718,197.902 243.000,200.000 C238.869,201.213 234.212,202.409 231.000,200.000 C224.191,196.435 222.621,191.761 223.000,182.000 C223.639,179.053 225.244,177.411 227.000,176.000 C230.466,173.215 230.832,172.549 236.000,170.000 ZM121.000,173.000 C126.988,172.897 130.453,172.786 134.000,175.000 C137.305,180.086 139.943,182.028 140.000,191.000 C140.227,193.791 139.084,194.378 138.000,196.000 C132.859,201.953 127.525,206.668 120.000,211.000 C112.226,212.140 109.917,212.171 105.000,208.000 C100.350,204.894 101.688,206.186 99.000,200.000 C98.598,192.866 99.021,191.123 101.000,188.000 C106.365,183.042 113.471,176.809 121.000,173.000 ZM205.000,196.000 C209.232,194.208 213.431,195.189 218.000,198.000 C219.802,200.681 223.372,201.937 224.000,207.000 C225.485,218.974 207.185,233.073 196.000,233.000 C190.443,232.262 188.619,231.086 187.000,227.000 C184.444,223.458 184.110,221.679 184.000,217.000 C184.210,213.641 185.481,212.137 187.000,210.000 C191.076,204.265 197.719,200.547 205.000,196.000 ZM150.000,201.000 C157.710,202.848 158.004,203.318 162.000,213.000 C163.244,216.601 161.696,216.209 160.000,221.000 C157.905,227.328 144.792,240.383 137.000,241.000 C131.334,238.667 128.666,236.333 123.000,234.000 C122.416,228.932 121.254,222.100 124.000,217.000 C128.201,211.489 134.159,206.354 140.000,203.000 C142.242,201.713 143.208,200.289 150.000,201.000 ZM232.000,223.000 C238.961,222.793 239.080,222.816 244.000,227.000 C246.935,231.514 247.474,236.797 247.000,241.000 C241.259,250.273 233.967,260.906 218.000,261.000 C216.044,260.848 214.555,260.174 213.000,259.000 C209.103,255.224 207.077,251.537 206.977,244.945 C211.760,235.855 216.744,228.998 225.000,225.000 C227.419,223.829 228.670,223.397 232.000,223.000 ZM166.825,227.856 C171.429,226.998 174.429,227.046 178.000,229.000 C182.037,229.712 183.311,232.226 185.000,237.000 C185.496,243.793 184.577,246.140 183.000,252.000 C181.334,252.000 179.667,252.000 178.000,252.000 C172.167,247.763 154.541,245.196 149.994,242.486 C154.337,239.878 159.529,229.296 166.825,227.856 Z" class="cls-2"/>
  <path d="M69.000,210.000 C82.121,210.894 105.071,224.198 117.000,229.000 C146.393,240.833 174.324,248.614 203.000,261.000 C214.932,266.154 228.063,270.488 241.000,276.000 C247.621,278.821 254.847,283.562 263.000,285.000 C262.295,269.505 257.022,251.939 253.000,238.000 C242.668,185.339 232.332,132.661 222.000,80.000 C222.333,80.000 222.667,80.000 223.000,80.000 C226.216,83.941 231.660,85.107 236.000,88.000 C245.050,94.034 259.545,106.427 266.000,115.000 C286.897,142.755 312.273,192.186 297.000,239.000 C292.693,252.203 285.573,263.818 278.000,274.000 C274.883,278.191 269.239,280.835 265.000,284.000 C256.201,290.569 248.607,298.821 238.000,304.000 C226.250,309.737 208.948,309.393 200.000,311.000 C191.013,312.614 175.324,307.821 167.000,305.000 C133.671,293.704 111.725,279.414 93.000,254.000 C84.180,242.029 71.244,227.861 69.000,210.000 Z" class="cls-3"/>
</svg>
